<svg xmlns="http://www.w3.org/2000/svg" width="512" height="512" viewBox="0 0 512 512">
<defs>
  <!-- золото: вертикальный свет -->
  <linearGradient id="gold" x1="0" y1="0" x2="0" y2="1">
    <stop offset="0" stop-color="#f0d48c"/><stop offset=".35" stop-color="#b08c42"/>
    <stop offset=".7" stop-color="#6a4e1c"/><stop offset="1" stop-color="#2e2008"/>
  </linearGradient>
  <linearGradient id="goldUp" x1="0" y1="1" x2="0" y2="0">
    <stop offset="0" stop-color="#e8c87a"/><stop offset="1" stop-color="#4a3512"/>
  </linearGradient>
  <radialGradient id="ringFace" cx=".38" cy=".32" r="1">
    <stop offset="0" stop-color="#7c5c2c"/><stop offset=".55" stop-color="#3c2c10"/>
    <stop offset=".85" stop-color="#2c1f0b"/><stop offset="1" stop-color="#140d04"/>
  </radialGradient>
  <radialGradient id="gem" cx=".38" cy=".3" r="1">
    <stop offset="0" stop-color="#ffe9b0"/><stop offset=".4" stop-color="#ff9d3c"/>
    <stop offset=".8" stop-color="#a33c08"/><stop offset="1" stop-color="#521a02"/>
  </radialGradient>
  <!-- чеканка: рельеф по альфе -->
  <filter id="emboss" x="-20%" y="-20%" width="140%" height="140%">
    <feGaussianBlur in="SourceAlpha" stdDeviation="2.2" result="b"/>
    <feSpecularLighting in="b" surfaceScale="3.4" specularConstant=".30" specularExponent="14" lighting-color="#ffe9c0" result="s">
      <fePointLight x="180" y="120" z="220"/>
    </feSpecularLighting>
    <feComposite in="s" in2="SourceAlpha" operator="in" result="s2"/>
    <feComposite in="SourceGraphic" in2="s2" operator="arithmetic" k1="0" k2="1" k3=".55" k4="0"/>
  </filter>
  <!-- потёртость металла -->
  <filter id="wear" x="-10%" y="-10%" width="120%" height="120%">
    <feTurbulence type="fractalNoise" baseFrequency=".55" numOctaves="3" seed="7" result="n"/>
    <feColorMatrix in="n" type="matrix" values="0 0 0 0 0  0 0 0 0 0  0 0 0 0 0  .9 .9 .9 0 -1.05" result="spots"/>
    <feComposite in="spots" in2="SourceAlpha" operator="in" result="dark"/>
    <feFlood flood-color="#1a1206" flood-opacity=".66" result="dk"/>
    <feComposite in="dk" in2="dark" operator="in" result="wearlay"/>
    <feMerge><feMergeNode in="SourceGraphic"/><feMergeNode in="wearlay"/></feMerge>
  </filter>
</defs>
<!-- тень под рамой -->
<ellipse cx="256" cy="286" rx="238" ry="220" fill="rgba(0,0,0,.42)"/>
<g filter="url(#wear)">
  <g filter="url(#emboss)">
    <!-- широкое кованое кольцо -->
    <circle cx="256" cy="256" r="212" fill="none" stroke="url(#ringFace)" stroke-width="58"/>
    <!-- резные насечки камня -->
    <g stroke="#000" stroke-opacity=".38" stroke-width="7">
      <path d="M256 20v52M256 440v52M20 256h52M440 256h52M89 89l37 37M386 386l37 37M423 89l-37 37M126 386l-37 37"/>
    </g>
    <g stroke="#ffe2a8" stroke-opacity=".14" stroke-width="4">
      <path d="M256 26v40M262 446v40M26 262h40M446 250h40"/>
    </g>
    <!-- внешняя золочёная кромка -->
    <circle cx="256" cy="256" r="245" fill="none" stroke="url(#gold)" stroke-width="7"/>
    <circle cx="256" cy="256" r="250" fill="none" stroke="#ffe8bc" stroke-opacity=".3" stroke-width="2"/>
    <!-- внутренний бортик под стекло -->
    <circle cx="256" cy="256" r="181" fill="none" stroke="#0a0703" stroke-width="10"/>
    <circle cx="256" cy="256" r="175" fill="none" stroke="url(#goldUp)" stroke-width="5"/>
    <!-- четыре кованых когтя по диагоналям -->
    <g id="claw">
      <path transform="translate(404,108) rotate(45)" fill="url(#gold)" stroke="#140c02" stroke-width="4"
        d="M0,-34 C20,-22 27,4 16,34 C10,52 4,60 0,66 C-4,60 -10,52 -16,34 C-27,4 -20,-22 0,-34 Z"/>
      <circle cx="404" cy="108" r="7" fill="#f4dc9c"/><circle cx="406.5" cy="110.5" r="3.4" fill="#3a2a0c"/>
    </g>
    <use href="#claw" transform="rotate(90 256 256)"/>
    <use href="#claw" transform="rotate(180 256 256)"/>
    <use href="#claw" transform="rotate(270 256 256)"/>
    <!-- филигрань: витые усики по сторонам -->
    <g fill="none" stroke="url(#gold)" stroke-width="9" stroke-linecap="round" id="fil">
      <path d="M256 12 C286 22 300 34 298 52 C296 66 282 70 274 62 C266 54 272 42 282 44"/>
      <path d="M256 12 C226 22 212 34 214 52 C216 66 230 70 238 62 C246 54 240 42 230 44"/>
    </g>
    <use href="#fil" transform="rotate(180 256 256)"/>
    <!-- заклёпки по осям -->
    <g>
      <circle cx="256" cy="470" r="11" fill="url(#gold)" stroke="#140c02" stroke-width="3"/>
      <circle cx="42" cy="256" r="11" fill="url(#gold)" stroke="#140c02" stroke-width="3"/>
      <circle cx="470" cy="256" r="11" fill="url(#gold)" stroke="#140c02" stroke-width="3"/>
    </g>
    <!-- навершие-пламя свечи сверху с янтарём -->
    <path d="M256 2 C274 22 282 40 274 58 L238 58 C230 40 238 22 256 2 Z" fill="url(#gold)" stroke="#140c02" stroke-width="4"/>
    <ellipse cx="256" cy="46" rx="13" ry="15" fill="url(#gem)" stroke="#2c1404" stroke-width="3"/>
    <ellipse cx="251" cy="40" rx="4" ry="5.5" fill="#fff3d0" opacity=".85"/>
  </g>
</g>
</svg>
