<svg xmlns="http://www.w3.org/2000/svg" width="256" height="256" viewBox="0 0 256 256">
<defs>
  <linearGradient id="gold" x1="0" y1="0" x2="0" y2="1">
    <stop offset="0" stop-color="#eecf86"/><stop offset=".4" stop-color="#a8823c"/>
    <stop offset=".75" stop-color="#5c4418"/><stop offset="1" stop-color="#281c07"/>
  </linearGradient>
  <radialGradient id="face" cx=".4" cy=".3" r="1">
    <stop offset="0" stop-color="#2e2412"/><stop offset=".7" stop-color="#120d05"/><stop offset="1" stop-color="#080502"/>
  </radialGradient>
  <radialGradient id="ringFace" cx=".38" cy=".3" r="1">
    <stop offset="0" stop-color="#6f5426"/><stop offset=".6" stop-color="#2e2008"/><stop offset="1" stop-color="#170f05"/>
  </radialGradient>
  <filter id="emboss" x="-20%" y="-20%" width="140%" height="140%">
    <feGaussianBlur in="SourceAlpha" stdDeviation="1.4" result="b"/>
    <feSpecularLighting in="b" surfaceScale="2.4" specularConstant=".30" specularExponent="12" lighting-color="#ffe9c0" result="s">
      <fePointLight x="90" y="60" z="120"/>
    </feSpecularLighting>
    <feComposite in="s" in2="SourceAlpha" operator="in" result="s2"/>
    <feComposite in="SourceGraphic" in2="s2" operator="arithmetic" k1="0" k2="1" k3=".55" k4="0"/>
  </filter>
  <filter id="wear" x="-10%" y="-10%" width="120%" height="120%">
    <feTurbulence type="fractalNoise" baseFrequency=".8" numOctaves="2" seed="4" result="n"/>
    <feColorMatrix in="n" type="matrix" values="0 0 0 0 0  0 0 0 0 0  0 0 0 0 0  .9 .9 .9 0 -1.08" result="spots"/>
    <feComposite in="spots" in2="SourceAlpha" operator="in" result="dark"/>
    <feFlood flood-color="#170f05" flood-opacity=".62" result="dk"/>
    <feComposite in="dk" in2="dark" operator="in" result="wl"/>
    <feMerge><feMergeNode in="SourceGraphic"/><feMergeNode in="wl"/></feMerge>
  </filter>
</defs>
<ellipse cx="128" cy="140" rx="118" ry="110" fill="rgba(0,0,0,.42)"/>
<g filter="url(#wear)">
  <g filter="url(#emboss)">
    <!-- каменная чаша под иконку -->
    <circle cx="128" cy="128" r="104" fill="url(#face)"/>
    <!-- кованый обод -->
    <circle cx="128" cy="128" r="108" fill="none" stroke="url(#ringFace)" stroke-width="17"/>
    <circle cx="128" cy="128" r="119" fill="none" stroke="url(#gold)" stroke-width="4.5"/>
    <circle cx="128" cy="128" r="123" fill="none" stroke="#ffe8bc" stroke-opacity=".25" stroke-width="1.6"/>
    <circle cx="128" cy="128" r="99" fill="none" stroke="#000" stroke-opacity=".8" stroke-width="4"/>
    <!-- четыре мини-когтя -->
    <g id="mc">
      <path transform="translate(203,53) rotate(45)" fill="url(#gold)" stroke="#120b02" stroke-width="2.6"
        d="M0,-15 C10,-9 13,3 7,17 C4,25 2,28 0,31 C-2,28 -4,25 -7,17 C-13,3 -10,-9 0,-15 Z"/>
      <circle cx="203" cy="53" r="3.6" fill="#f4dc9c"/>
    </g>
    <use href="#mc" transform="rotate(90 128 128)"/>
    <use href="#mc" transform="rotate(180 128 128)"/>
    <use href="#mc" transform="rotate(270 128 128)"/>
    <!-- малые засечки по осям -->
    <g stroke="url(#gold)" stroke-width="3.6" stroke-linecap="round">
      <path d="M128 12v14M128 230v14M12 128h14M230 128h14"/>
    </g>
  </g>
</g>
</svg>
